<svg id="Camada_1" data-name="Camada 1" xmlns="http://www.w3.org/2000/svg" viewBox="0 0 518.98 155.29"><path d="M79,104.73H66.61V74.31l-5.25,30.42H56.11l-5-30.42v30.42H39.25V48.22H54.67l4,25.35h.65l4.51-25.36H79Z" style="fill:#1d1d1b"/><path d="M119.82,104.73H106.26L97.65,81.46v23.27H85.06V48.22H97.65V70.83l8.21-22.61h13L107.54,74.49Z" style="fill:#1d1d1b"/><path d="M190.62,59.16h-13v9.89h10.82V80.42H177.25V93.61h13.19v11.18H165.15V48.28h25.47Z" style="fill:#1d1d1b"/><path d="M228.86,105l-11.17-.12-8.55-29.36-.31,29.26-11.67-.12.61-56.51,11.72.13,8.1,27,.28-26.88,11.61.13Z" style="fill:#1d1d1b"/><path d="M267.6,96.28l-9.53,8.63H244.93l-9.28-8.61V55.43l7.63-7.15h16.5l7.57,7.13V69H255.5V59.16h-7.76V93.61h7.76v-8h-4.64V74.74H267.6Z" style="fill:#1d1d1b"/><path d="M299.18,59.16h-13v9.89H297V80.42H285.8V93.61H299v11.18H273.7V48.28h25.48Z" style="fill:#1d1d1b"/><path d="M337.73,104.79H326.55l-8.86-29.26v29.26H306V48.28h11.72l8.39,26.87V48.28h11.61Z" style="fill:#1d1d1b"/><path d="M375.84,104.79H363.69V81.7h-7.76v23.09H344V48.28h12V70.34h7.76V48.28h12.15Z" style="fill:#1d1d1b"/><path d="M419.28,104.79H406.63l-1.28-10.57h-9l-1.28,10.57H382.75l8.67-56.51h19.25ZM404.37,83l-2.44-23.82h-1.16L397.84,83Z" style="fill:#1d1d1b"/><path d="M457,104.79h-12.4V81.94h-7.39v22.85H425.45V48.28H447.5l9,7.15V71l-6.6,5.56,7,6.11Zm-12.4-33.41V59.16h-7.15V71.38Z" style="fill:#1d1d1b"/><path d="M475.79,104.79H463.14V48.28h12.65Z" style="fill:#1d1d1b"/><path d="M519,104.79H506.33l-1.28-10.57h-9l-1.29,10.57H482.44l8.68-56.51h19.24ZM504.07,83l-2.44-23.82h-1.16L497.53,83Z" style="fill:#1d1d1b"/><path d="M37.79,125.52C20,133.25,25.4,137.43,13.73,123c3.4-4.39,6.43-8.53,9.85-12.62,1.28-2.11-4.9-14.35-7.38-14.63-3.93-.45-7.9-.61-11.77-1.36A7.42,7.42,0,0,1,.94,91C0,79.5-2.77,81.58,9.15,77.75c5.23-1.68,7.54-3.79,8.28-9.54,1.14-7-.12-9.28-6-12.77-7.38-6.46-7-3.49-2.84-13,1.5-3.4,3.44-4.81,7-3.37,8.62,4.08,15.18,2.27,20-5.79a6.53,6.53,0,0,0,1-4.42c-3.91-15.17-8.74-12,6.71-20.76C46.8,11,53.05,19.79,56.8,20.05c4.05-1.32,12.08-1.36,13.28-6.13C74.66-1.26,69.61-.07,86.87.08c1,4.81,2.11,9.3,2.76,13.85.37,2.57,1.65,3.25,3.85,4.39,11.84,6.12,15-1.17,23-8,11.32,4.73,12.61,6.69,7.15,17.78-1.88,4.07-1,6.28,1.48,9.8,4,5.68,8,7.48,14.49,5,2.43-.95,6.7-1.73,7.85-.48,2.43,2.64,3.48,6.62,4.8,10.16,0,3.27-9.47,8.21-12.12,10.43-2.22,2,.34,15.25,3.13,16.34,12.16,5.12,15.44,3,11.28,17.19-2,2.68-10.71,1.84-14.11,2.22-3.44-.19-4,1.32-5,4.17-5.13,6.42-3.58,11.75,1.47,17.8s4.48,4.54-.5,10.36c-1.33,1.55-2.8,3-4.58,4.88l-15-8.35c-13,7.66-13,5.28-11.84,21,.25,2.91-1,4.17-3.67,4.82-11,2.63-8.78,3.86-13.31-5.86-2.69-5.79-5.75-7.75-12-7.51-4.63.18-7.86.65-9.31,5.43A11.43,11.43,0,0,1,65,148.15c-5,7.93-3,6.82-11.87,4.54-4.09-1.05-5.85-3.16-4.7-7.11C51.86,135.1,46.48,130.13,37.79,125.52Zm40.84,7.83c72.5-1.56,71.87-109-.53-110.07C6.3,23.94,6.5,133.47,78.63,133.35Z" style="fill:#1d1d1b"/></svg>